<svg width="176" height="36" viewBox="0 0 176 36" fill="none" xmlns="http://www.w3.org/2000/svg">
<path d="M1.584 35C1.296 35 1.056 34.904 0.864 34.712C0.672 34.488 0.576 34.248 0.576 33.992C0.576 33.832 0.592 33.688 0.624 33.56L12.048 2.696C12.144 2.344 12.336 2.04 12.624 1.784C12.912 1.528 13.312 1.4 13.824 1.4H19.968C20.48 1.4 20.88 1.528 21.168 1.784C21.456 2.04 21.648 2.344 21.744 2.696L33.168 33.56C33.2 33.688 33.216 33.832 33.216 33.992C33.216 34.248 33.12 34.488 32.928 34.712C32.736 34.904 32.496 35 32.208 35H27.216C26.736 35 26.384 34.888 26.16 34.664C25.936 34.44 25.792 34.232 25.728 34.04L23.664 28.664H10.128L8.064 34.04C8 34.232 7.856 34.44 7.632 34.664C7.408 34.888 7.056 35 6.576 35H1.584ZM11.904 22.472H21.84L16.896 8.648L11.904 22.472ZM38.5489 35C38.1969 35 37.9089 34.888 37.6849 34.664C37.4609 34.44 37.3489 34.152 37.3489 33.8V2.6C37.3489 2.248 37.4609 1.96 37.6849 1.736C37.9089 1.512 38.1969 1.4 38.5489 1.4H42.9169C43.3969 1.4 43.7489 1.512 43.9729 1.736C44.1969 1.96 44.3409 2.136 44.4049 2.264L57.2209 22.28V2.6C57.2209 2.248 57.3329 1.96 57.5569 1.736C57.7809 1.512 58.0529 1.4 58.3729 1.4H63.2689C63.6209 1.4 63.9089 1.512 64.1329 1.736C64.3569 1.96 64.4689 2.248 64.4689 2.6V33.8C64.4689 34.12 64.3569 34.408 64.1329 34.664C63.9089 34.888 63.6209 35 63.2689 35H58.8529C58.3729 35 58.0209 34.888 57.7969 34.664C57.6049 34.408 57.4609 34.232 57.3649 34.136L44.5969 14.744V33.8C44.5969 34.152 44.4849 34.44 44.2609 34.664C44.0369 34.888 43.7489 35 43.3969 35H38.5489ZM72.7676 35C72.4156 35 72.1276 34.888 71.9036 34.664C71.6796 34.44 71.5676 34.152 71.5676 33.8V2.6C71.5676 2.248 71.6796 1.96 71.9036 1.736C72.1276 1.512 72.4156 1.4 72.7676 1.4H78.1916C78.5436 1.4 78.8316 1.512 79.0556 1.736C79.2796 1.96 79.3916 2.248 79.3916 2.6V33.8C79.3916 34.152 79.2796 34.44 79.0556 34.664C78.8316 34.888 78.5436 35 78.1916 35H72.7676ZM99.9619 35.48C96.9539 35.48 94.3779 34.984 92.2339 33.992C90.1219 32.968 88.4739 31.496 87.2899 29.576C86.1379 27.624 85.5139 25.272 85.4179 22.52C85.3859 21.144 85.3699 19.672 85.3699 18.104C85.3699 16.536 85.3859 15.048 85.4179 13.64C85.5139 10.952 86.1379 8.664 87.2899 6.776C88.4739 4.888 90.1379 3.448 92.2819 2.456C94.4579 1.432 97.0179 0.919998 99.9619 0.919998C102.33 0.919998 104.41 1.224 106.202 1.832C107.994 2.44 109.498 3.24 110.714 4.232C111.93 5.192 112.858 6.248 113.498 7.4C114.138 8.552 114.474 9.656 114.506 10.712C114.506 11 114.41 11.256 114.218 11.48C114.026 11.672 113.77 11.768 113.45 11.768H107.498C107.178 11.768 106.922 11.704 106.73 11.576C106.57 11.448 106.426 11.256 106.298 11C106.074 10.424 105.706 9.848 105.194 9.272C104.714 8.664 104.058 8.152 103.226 7.736C102.394 7.32 101.306 7.112 99.9619 7.112C97.9459 7.112 96.3459 7.64 95.1619 8.696C94.0099 9.752 93.3859 11.48 93.2899 13.88C93.1939 16.632 93.1939 19.432 93.2899 22.28C93.3859 24.776 94.0259 26.568 95.2099 27.656C96.4259 28.744 98.0419 29.288 100.058 29.288C101.37 29.288 102.538 29.064 103.562 28.616C104.618 28.136 105.45 27.4 106.058 26.408C106.666 25.416 106.97 24.152 106.97 22.616V21.416H101.738C101.418 21.416 101.146 21.304 100.922 21.08C100.698 20.824 100.586 20.536 100.586 20.216V17.144C100.586 16.792 100.698 16.504 100.922 16.28C101.146 16.056 101.418 15.944 101.738 15.944H113.498C113.85 15.944 114.138 16.056 114.362 16.28C114.586 16.504 114.698 16.792 114.698 17.144V22.376C114.698 25.128 114.09 27.48 112.874 29.432C111.69 31.384 109.978 32.888 107.738 33.944C105.53 34.968 102.938 35.48 99.9619 35.48ZM121.752 35C121.4 35 121.112 34.888 120.888 34.664C120.664 34.44 120.552 34.152 120.552 33.8V2.6C120.552 2.248 120.664 1.96 120.888 1.736C121.112 1.512 121.4 1.4 121.752 1.4H127.176C127.528 1.4 127.816 1.512 128.04 1.736C128.264 1.96 128.376 2.248 128.376 2.6V33.8C128.376 34.152 128.264 34.44 128.04 34.664C127.816 34.888 127.528 35 127.176 35H121.752ZM136.658 35C136.306 35 136.018 34.888 135.794 34.664C135.57 34.44 135.458 34.152 135.458 33.8V2.6C135.458 2.248 135.57 1.96 135.794 1.736C136.018 1.512 136.306 1.4 136.658 1.4H149.378C153.378 1.4 156.53 2.328 158.834 4.184C161.138 6.008 162.29 8.648 162.29 12.104C162.29 14.44 161.73 16.392 160.61 17.96C159.49 19.528 157.986 20.696 156.098 21.464L162.866 33.464C162.962 33.656 163.01 33.832 163.01 33.992C163.01 34.248 162.914 34.488 162.722 34.712C162.53 34.904 162.29 35 162.002 35H156.674C156.098 35 155.666 34.856 155.378 34.568C155.09 34.248 154.882 33.96 154.754 33.704L148.898 22.712H143.09V33.8C143.09 34.152 142.978 34.44 142.754 34.664C142.53 34.888 142.242 35 141.89 35H136.658ZM143.09 16.616H149.234C150.994 16.616 152.29 16.216 153.122 15.416C153.986 14.616 154.418 13.496 154.418 12.056C154.418 10.616 154.002 9.48 153.17 8.648C152.338 7.816 151.026 7.4 149.234 7.4H143.09V16.616ZM169.377 35C169.025 35 168.737 34.888 168.513 34.664C168.289 34.44 168.177 34.152 168.177 33.8V2.6C168.177 2.248 168.289 1.96 168.513 1.736C168.737 1.512 169.025 1.4 169.377 1.4H174.801C175.153 1.4 175.441 1.512 175.665 1.736C175.889 1.96 176.001 2.248 176.001 2.6V33.8C176.001 34.152 175.889 34.44 175.665 34.664C175.441 34.888 175.153 35 174.801 35H169.377Z" fill="#47B3E1"/>
</svg>
