<svg width="147" height="30" viewBox="0 0 147 30" fill="none" xmlns="http://www.w3.org/2000/svg">
<path d="M1.32 29C1.08 29 0.88 28.92 0.72 28.76C0.56 28.5733 0.48 28.3733 0.48 28.16C0.48 28.0267 0.493333 27.9067 0.52 27.8L10.04 2.08C10.12 1.78667 10.28 1.53333 10.52 1.32C10.76 1.10666 11.0933 0.999998 11.52 0.999998H16.64C17.0667 0.999998 17.4 1.10666 17.64 1.32C17.88 1.53333 18.04 1.78667 18.12 2.08L27.64 27.8C27.6667 27.9067 27.68 28.0267 27.68 28.16C27.68 28.3733 27.6 28.5733 27.44 28.76C27.28 28.92 27.08 29 26.84 29H22.68C22.28 29 21.9867 28.9067 21.8 28.72C21.6133 28.5333 21.4933 28.36 21.44 28.2L19.72 23.72H8.44L6.72 28.2C6.66667 28.36 6.54667 28.5333 6.36 28.72C6.17333 28.9067 5.88 29 5.48 29H1.32ZM9.92 18.56H18.2L14.08 7.04L9.92 18.56ZM32.1241 29C31.8307 29 31.5907 28.9067 31.4041 28.72C31.2174 28.5333 31.1241 28.2933 31.1241 28V2C31.1241 1.70667 31.2174 1.46667 31.4041 1.28C31.5907 1.09333 31.8307 0.999998 32.1241 0.999998H35.7641C36.1641 0.999998 36.4574 1.09333 36.6441 1.28C36.8307 1.46667 36.9507 1.61333 37.0041 1.72L47.6841 18.4V2C47.6841 1.70667 47.7774 1.46667 47.9641 1.28C48.1507 1.09333 48.3774 0.999998 48.6441 0.999998H52.7241C53.0174 0.999998 53.2574 1.09333 53.4441 1.28C53.6307 1.46667 53.7241 1.70667 53.7241 2V28C53.7241 28.2667 53.6307 28.5067 53.4441 28.72C53.2574 28.9067 53.0174 29 52.7241 29H49.0441C48.6441 29 48.3507 28.9067 48.1641 28.72C48.0041 28.5067 47.8841 28.36 47.8041 28.28L37.1641 12.12V28C37.1641 28.2933 37.0707 28.5333 36.8841 28.72C36.6974 28.9067 36.4574 29 36.1641 29H32.1241ZM60.6397 29C60.3464 29 60.1064 28.9067 59.9197 28.72C59.733 28.5333 59.6397 28.2933 59.6397 28V2C59.6397 1.70667 59.733 1.46667 59.9197 1.28C60.1064 1.09333 60.3464 0.999998 60.6397 0.999998H65.1597C65.453 0.999998 65.693 1.09333 65.8797 1.28C66.0664 1.46667 66.1597 1.70667 66.1597 2V28C66.1597 28.2933 66.0664 28.5333 65.8797 28.72C65.693 28.9067 65.453 29 65.1597 29H60.6397ZM83.3016 29.4C80.7949 29.4 78.6482 28.9867 76.8616 28.16C75.1016 27.3067 73.7282 26.08 72.7416 24.48C71.7816 22.8533 71.2616 20.8933 71.1816 18.6C71.1549 17.4533 71.1416 16.2267 71.1416 14.92C71.1416 13.6133 71.1549 12.3733 71.1816 11.2C71.2616 8.96 71.7816 7.05333 72.7416 5.48C73.7282 3.90667 75.1149 2.70667 76.9016 1.88C78.7149 1.02667 80.8482 0.599998 83.3016 0.599998C85.2749 0.599998 87.0082 0.853332 88.5016 1.36C89.9949 1.86666 91.2482 2.53333 92.2616 3.36C93.2749 4.16 94.0482 5.04 94.5816 6C95.1149 6.96 95.3949 7.88 95.4216 8.76C95.4216 9 95.3416 9.21333 95.1816 9.4C95.0216 9.56 94.8082 9.64 94.5416 9.64H89.5816C89.3149 9.64 89.1016 9.58667 88.9416 9.48C88.8082 9.37333 88.6882 9.21333 88.5816 9C88.3949 8.52 88.0882 8.04 87.6616 7.56C87.2616 7.05333 86.7149 6.62667 86.0216 6.28C85.3282 5.93333 84.4216 5.76 83.3016 5.76C81.6216 5.76 80.2882 6.2 79.3016 7.08C78.3416 7.96 77.8216 9.4 77.7416 11.4C77.6616 13.6933 77.6616 16.0267 77.7416 18.4C77.8216 20.48 78.3549 21.9733 79.3416 22.88C80.3549 23.7867 81.7016 24.24 83.3816 24.24C84.4749 24.24 85.4482 24.0533 86.3016 23.68C87.1816 23.28 87.8749 22.6667 88.3816 21.84C88.8882 21.0133 89.1416 19.96 89.1416 18.68V17.68H84.7816C84.5149 17.68 84.2882 17.5867 84.1016 17.4C83.9149 17.1867 83.8216 16.9467 83.8216 16.68V14.12C83.8216 13.8267 83.9149 13.5867 84.1016 13.4C84.2882 13.2133 84.5149 13.12 84.7816 13.12H94.5816C94.8749 13.12 95.1149 13.2133 95.3016 13.4C95.4882 13.5867 95.5816 13.8267 95.5816 14.12V18.48C95.5816 20.7733 95.0749 22.7333 94.0616 24.36C93.0749 25.9867 91.6482 27.24 89.7816 28.12C87.9416 28.9733 85.7816 29.4 83.3016 29.4ZM101.46 29C101.167 29 100.927 28.9067 100.74 28.72C100.553 28.5333 100.46 28.2933 100.46 28V2C100.46 1.70667 100.553 1.46667 100.74 1.28C100.927 1.09333 101.167 0.999998 101.46 0.999998H105.98C106.273 0.999998 106.513 1.09333 106.7 1.28C106.887 1.46667 106.98 1.70667 106.98 2V28C106.98 28.2933 106.887 28.5333 106.7 28.72C106.513 28.9067 106.273 29 105.98 29H101.46ZM113.882 29C113.589 29 113.349 28.9067 113.162 28.72C112.975 28.5333 112.882 28.2933 112.882 28V2C112.882 1.70667 112.975 1.46667 113.162 1.28C113.349 1.09333 113.589 0.999998 113.882 0.999998H124.482C127.815 0.999998 130.442 1.77333 132.362 3.32C134.282 4.84 135.242 7.04 135.242 9.92C135.242 11.8667 134.775 13.4933 133.842 14.8C132.909 16.1067 131.655 17.08 130.082 17.72L135.722 27.72C135.802 27.88 135.842 28.0267 135.842 28.16C135.842 28.3733 135.762 28.5733 135.602 28.76C135.442 28.92 135.242 29 135.002 29H130.562C130.082 29 129.722 28.88 129.482 28.64C129.242 28.3733 129.069 28.1333 128.962 27.92L124.082 18.76H119.242V28C119.242 28.2933 119.149 28.5333 118.962 28.72C118.775 28.9067 118.535 29 118.242 29H113.882ZM119.242 13.68H124.362C125.829 13.68 126.909 13.3467 127.602 12.68C128.322 12.0133 128.682 11.08 128.682 9.88C128.682 8.68 128.335 7.73333 127.642 7.04C126.949 6.34667 125.855 6 124.362 6H119.242V13.68ZM141.148 29C140.854 29 140.614 28.9067 140.428 28.72C140.241 28.5333 140.148 28.2933 140.148 28V2C140.148 1.70667 140.241 1.46667 140.428 1.28C140.614 1.09333 140.854 0.999998 141.148 0.999998H145.668C145.961 0.999998 146.201 1.09333 146.388 1.28C146.574 1.46667 146.668 1.70667 146.668 2V28C146.668 28.2933 146.574 28.5333 146.388 28.72C146.201 28.9067 145.961 29 145.668 29H141.148Z" fill="#47B3E1"/>
</svg>
