<?xml version="1.0" standalone="no"?>
<!DOCTYPE svg PUBLIC "-//W3C//DTD SVG 20010904//EN"
 "http://www.w3.org/TR/2001/REC-SVG-20010904/DTD/svg10.dtd">
<svg version="1.0" xmlns="http://www.w3.org/2000/svg"
 width="1066.000000pt" height="1066.000000pt" viewBox="0 0 1066.000000 1066.000000"
 preserveAspectRatio="xMidYMid meet">
<metadata>
Created by potrace 1.14, written by Peter Selinger 2001-2017
</metadata>
<g transform="translate(0.000000,1066.000000) scale(0.100000,-0.100000)"
fill="#000000" stroke="none">
<path d="M5187 9894 c-1 -1 -49 -5 -107 -8 -58 -4 -112 -8 -120 -11 -8 -2 -46
-7 -85 -10 -38 -4 -92 -11 -120 -16 -27 -6 -61 -12 -75 -14 -64 -9 -229 -50
-400 -98 -132 -37 -380 -137 -550 -221 -336 -167 -603 -342 -920 -607 -118
-98 -478 -449 -585 -570 -118 -133 -253 -297 -345 -418 -14 -18 -35 -45 -46
-59 -41 -51 -220 -308 -289 -414 -220 -337 -383 -624 -574 -1008 -134 -271
-142 -289 -258 -560 -41 -96 -78 -184 -83 -195 -55 -125 -272 -731 -295 -825
-2 -8 -15 -53 -30 -100 -23 -75 -99 -350 -110 -397 -3 -10 -9 -38 -16 -63 -6
-25 -12 -52 -14 -60 -2 -8 -10 -46 -19 -85 -14 -59 -39 -174 -52 -238 -24
-125 -58 -357 -71 -492 -16 -161 -9 -527 13 -638 2 -12 6 -39 9 -62 11 -72 62
-259 100 -361 65 -173 148 -328 261 -485 83 -117 100 -136 239 -274 249 -250
457 -387 880 -580 105 -47 385 -136 555 -175 206 -48 276 -59 545 -87 33 -4
1237 -7 2675 -8 2592 -2 2711 -1 2935 29 564 76 1081 273 1495 570 540 386
867 950 917 1579 13 158 7 449 -11 557 -3 14 -7 49 -10 78 -19 166 -59 379
-132 702 -5 22 -20 81 -69 265 -133 503 -353 1098 -625 1690 -82 179 -294 592
-332 647 -10 14 -18 28 -18 31 0 10 -112 200 -213 362 -321 515 -648 934
-1027 1315 -80 80 -183 179 -230 220 -47 41 -87 77 -90 80 -56 56 -315 253
-458 349 -340 227 -707 404 -1065 512 -70 21 -138 41 -150 43 -12 2 -40 9 -62
14 -83 22 -271 57 -370 68 -22 2 -53 6 -70 9 -86 12 -519 28 -528 19z"/>
</g>
</svg>
